<svg width="27" height="27" viewBox="0 0 27 27" fill="none"
    xmlns="http://www.w3.org/2000/svg">
    <path d="M20.709 4.671C20.3886 4.671 20.0754 4.76601 19.809 4.94402C19.5426 5.12203 19.3349 5.37504 19.2123 5.67105C19.0897 5.96707 19.0576 6.2928 19.1201 6.60705C19.1826 6.9213 19.3369 7.20995 19.5635 7.43651C19.79 7.66307 20.0787 7.81736 20.393 7.87987C20.7072 7.94238 21.0329 7.9103 21.3289 7.78768C21.625 7.66507 21.878 7.45743 22.056 7.19102C22.234 6.92462 22.329 6.61141 22.329 6.291C22.329 5.86135 22.1583 5.4493 21.8545 5.14549C21.5507 4.84168 21.1387 4.671 20.709 4.671ZM26.919 7.938C26.8927 6.8179 26.683 5.70969 26.298 4.6575C25.9547 3.75723 25.4205 2.94203 24.732 2.268C24.0635 1.57603 23.2464 1.04514 22.3425 0.7155C21.2931 0.318817 20.1836 0.104233 19.062 0.0809999C17.631 -7.54371e-08 17.172 0 13.5 0C9.828 0 9.369 -7.54371e-08 7.938 0.0809999C6.81636 0.104233 5.70691 0.318817 4.6575 0.7155C3.75526 1.04848 2.93886 1.57891 2.268 2.268C1.57603 2.93649 1.04514 3.75359 0.7155 4.6575C0.318817 5.70691 0.104233 6.81636 0.0809999 7.938C-7.54371e-08 9.369 0 9.828 0 13.5C0 17.172 -7.54371e-08 17.631 0.0809999 19.062C0.104233 20.1836 0.318817 21.2931 0.7155 22.3425C1.04514 23.2464 1.57603 24.0635 2.268 24.732C2.93886 25.4211 3.75526 25.9515 4.6575 26.2845C5.70691 26.6812 6.81636 26.8958 7.938 26.919C9.369 27 9.828 27 13.5 27C17.172 27 17.631 27 19.062 26.919C20.1836 26.8958 21.2931 26.6812 22.3425 26.2845C23.2464 25.9549 24.0635 25.424 24.732 24.732C25.4235 24.0605 25.9583 23.2446 26.298 22.3425C26.683 21.2903 26.8927 20.1821 26.919 19.062C26.919 17.631 27 17.172 27 13.5C27 9.828 27 9.369 26.919 7.938ZM24.489 18.9C24.4792 19.7569 24.324 20.606 24.03 21.411C23.8144 21.9985 23.4682 22.5294 23.0175 22.9635C22.5796 23.4097 22.0499 23.7552 21.465 23.976C20.66 24.27 19.8109 24.4252 18.954 24.435C17.604 24.5025 17.1045 24.516 13.554 24.516C10.0035 24.516 9.504 24.516 8.154 24.435C7.2642 24.4517 6.3782 24.3146 5.535 24.03C4.97581 23.7979 4.47033 23.4533 4.05 23.0175C3.60192 22.5838 3.26004 22.0525 3.051 21.465C2.72141 20.6485 2.5386 19.7801 2.511 18.9C2.511 17.55 2.43 17.0505 2.43 13.5C2.43 9.9495 2.43 9.45 2.511 8.1C2.51705 7.22393 2.67698 6.35573 2.9835 5.535C3.22116 4.96518 3.58596 4.45724 4.05 4.05C4.46015 3.58583 4.96704 3.21718 5.535 2.97C6.35789 2.67306 7.2252 2.51786 8.1 2.511C9.45 2.511 9.9495 2.43 13.5 2.43C17.0505 2.43 17.55 2.43 18.9 2.511C19.7569 2.52083 20.606 2.67603 21.411 2.97C22.0245 3.19768 22.5751 3.56784 23.0175 4.05C23.4599 4.46469 23.8056 4.97169 24.03 5.535C24.33 6.35706 24.4853 7.2249 24.489 8.1C24.5565 9.45 24.57 9.9495 24.57 13.5C24.57 17.0505 24.5565 17.55 24.489 18.9ZM13.5 6.5745C12.1308 6.57717 10.7932 6.98561 9.65608 7.74821C8.51897 8.51082 7.63341 9.59336 7.11131 10.8591C6.5892 12.1248 6.45398 13.5168 6.72272 14.8594C6.99147 16.2019 7.65212 17.4346 8.6212 18.4018C9.59029 19.369 10.8243 20.0273 12.1674 20.2934C13.5104 20.5595 14.9022 20.4216 16.1669 19.897C17.4316 19.3725 18.5124 18.4848 19.2728 17.3462C20.0332 16.2076 20.439 14.8692 20.439 13.5C20.4408 12.5889 20.2624 11.6864 19.9142 10.8445C19.5659 10.0026 19.0547 9.23779 18.4098 8.59417C17.7649 7.95054 16.9991 7.44077 16.1565 7.09415C15.3139 6.74754 14.4111 6.57094 13.5 6.5745ZM13.5 17.9955C12.6109 17.9955 11.7417 17.7318 11.0024 17.2379C10.2632 16.7439 9.68695 16.0418 9.3467 15.2204C9.00645 14.3989 8.91742 13.495 9.09088 12.623C9.26434 11.7509 9.69249 10.9499 10.3212 10.3212C10.9499 9.69249 11.7509 9.26434 12.623 9.09088C13.495 8.91742 14.3989 9.00645 15.2204 9.3467C16.0418 9.68695 16.7439 10.2632 17.2379 11.0024C17.7318 11.7417 17.9955 12.6109 17.9955 13.5C17.9955 14.0904 17.8792 14.6749 17.6533 15.2204C17.4274 15.7658 17.0962 16.2614 16.6788 16.6788C16.2614 17.0962 15.7658 17.4274 15.2204 17.6533C14.6749 17.8792 14.0904 17.9955 13.5 17.9955Z" fill="#CD3EE4" />
</svg>