<svg width="108" height="22" viewBox="0 0 108 22" fill="none" xmlns="http://www.w3.org/2000/svg">
<path d="M17.4468 21.6867C17.2466 21.4723 17.1466 21.2414 17.1466 20.961V7.65217L11.6423 14.6612C11.4255 14.925 11.1419 15.0405 10.8083 15.0405C10.4247 15.0405 10.1412 14.9085 9.97436 14.6282L0.216834 1.86357C0.0667181 1.71514 0 1.51724 0 1.26986C0 0.973011 0.100077 0.725635 0.316911 0.511242C0.533745 0.296849 0.767259 0.197899 1.05081 0.197899H3.6695C4.00309 0.197899 4.28664 0.329833 4.50348 0.610193L10.8083 8.85607L16.9631 0.610193C17.1799 0.329833 17.4802 0.197899 17.8304 0.197899H20.4491C20.7327 0.197899 20.9662 0.296849 21.183 0.511242C21.3998 0.725635 21.4999 0.95652 21.4999 1.23688V20.9445C21.4999 21.2249 21.3998 21.4558 21.183 21.6702C20.9662 21.8846 20.7327 21.9835 20.4491 21.9835H18.1974C17.8971 22 17.6469 21.9011 17.4468 21.6867ZM0.316911 21.6867C0.100077 21.4723 0 21.2414 0 20.961V15.5187C0 15.2219 0.100077 14.9745 0.316911 14.7766C0.533745 14.5787 0.767259 14.4798 1.05081 14.4798H3.30255C3.5861 14.4798 3.81961 14.5787 4.03645 14.7766C4.25328 14.9745 4.35336 15.2219 4.35336 15.5187V20.9445C4.35336 21.2249 4.25328 21.4558 4.03645 21.6702C3.81961 21.8846 3.5861 21.9835 3.30255 21.9835H1.05081C0.767259 22 0.517066 21.9011 0.316911 21.6867Z" fill="white"/>
<path d="M24.3855 21.6867C24.1687 21.4723 24.0686 21.2414 24.0686 20.961C24.0686 20.8291 24.1019 20.6807 24.152 20.5487L25.086 18.4708C25.1694 18.2729 25.2862 18.1079 25.4697 17.9925C25.6365 17.8771 25.8366 17.8111 26.0534 17.8111H39.8975L35.0104 6.23388L31.0073 15.6672C30.9239 15.8486 30.7904 15.997 30.607 16.1124C30.4235 16.2279 30.2233 16.2939 30.0565 16.2939H27.5379C27.3044 16.2939 27.0709 16.1949 26.8707 15.997C26.6539 15.7991 26.5538 15.5517 26.5538 15.2549C26.5538 15.1229 26.5872 14.9745 26.6372 14.8426L32.6085 0.857569C32.792 0.428783 33.1089 0.197899 33.5759 0.197899H36.4615C36.6783 0.197899 36.8785 0.263866 37.0453 0.379308C37.2121 0.49475 37.3455 0.659668 37.4289 0.857569L45.8687 20.5322C45.9355 20.6477 45.9521 20.7796 45.9521 20.9115C45.9521 21.2084 45.8354 21.4558 45.6185 21.6702C45.4017 21.8846 45.1515 21.9835 44.9013 21.9835H25.1361C24.8525 22 24.6023 21.9011 24.3855 21.6867Z" fill="white"/>
<path d="M47.3365 21.6867C47.1197 21.4723 47.0196 21.2414 47.0196 20.961V18.8501C47.0196 18.6357 47.103 18.4213 47.2531 18.2234L51.4897 13.1769C51.7066 12.913 51.9734 12.7976 52.2737 12.7976H55.0925C55.3594 12.7976 55.5929 12.8966 55.8097 13.1109C56.0266 13.3253 56.1433 13.5727 56.1433 13.8696C56.1433 14.084 56.0599 14.2983 55.9098 14.4963L53.0576 17.8771H63.8993C64.1829 17.8771 64.433 17.976 64.6332 18.1739C64.85 18.3718 64.9501 18.6027 64.9501 18.8831V20.961C64.9501 21.2414 64.85 21.4723 64.6332 21.6867C64.4164 21.901 64.1829 22 63.8993 22H48.0704C47.7869 22 47.5367 21.901 47.3365 21.6867ZM56.1266 9.11994C55.9098 8.92204 55.8097 8.67466 55.8097 8.37781C55.8097 8.11394 55.8931 7.89955 56.0432 7.71814L58.8954 4.37031H48.2706C47.9703 4.37031 47.7202 4.27136 47.5033 4.05697C47.2865 3.84258 47.1864 3.61169 47.1864 3.33133V1.26986C47.1864 0.973011 47.2865 0.725635 47.5033 0.511242C47.7202 0.296849 47.9703 0.197899 48.2706 0.197899H63.8826C64.1662 0.197899 64.4164 0.296849 64.6165 0.511242C64.8334 0.725635 64.9334 0.973011 64.9334 1.26986V3.38081C64.9334 3.66117 64.85 3.87556 64.6999 4.04048L60.4633 9.02099C60.2632 9.28486 59.9963 9.4003 59.6794 9.4003H56.8939C56.5937 9.41679 56.3435 9.31784 56.1266 9.11994Z" fill="white"/>
<path d="M67.0517 21.6867C66.8349 21.4723 66.7348 21.2414 66.7348 20.961V18.8501C66.7348 18.6357 66.8182 18.4213 66.9683 18.2234L71.2216 13.1769C71.4385 12.913 71.7053 12.7976 72.0056 12.7976H74.8244C75.0913 12.7976 75.3248 12.8966 75.5416 13.1109C75.7585 13.3253 75.8752 13.5727 75.8752 13.8696C75.8752 14.084 75.7918 14.2983 75.6417 14.4963L72.7895 17.8771H83.6312C83.9147 17.8771 84.1649 17.976 84.3651 18.1739C84.5819 18.3718 84.682 18.6027 84.682 18.8831V20.961C84.682 21.2414 84.5819 21.4723 84.3651 21.6867C84.1483 21.901 83.9147 22 83.6312 22H67.8023C67.5188 22 67.2686 21.901 67.0517 21.6867ZM75.8585 9.11994C75.6417 8.92204 75.5416 8.67466 75.5416 8.37781C75.5416 8.11394 75.625 7.89955 75.7751 7.71814L78.6273 4.37031H68.0025C67.7022 4.37031 67.4521 4.27136 67.2352 4.05697C67.0184 3.84258 66.9183 3.61169 66.9183 3.33133V1.26986C66.9183 0.973011 67.0184 0.725635 67.2352 0.511242C67.4521 0.296849 67.7022 0.197899 68.0025 0.197899H83.6145C83.8981 0.197899 84.1483 0.296849 84.3484 0.511242C84.5653 0.725635 84.6653 0.973011 84.6653 1.26986V3.38081C84.6653 3.66117 84.5819 3.87556 84.4318 4.04048L80.1952 9.02099C79.9951 9.28486 79.7282 9.4003 79.4113 9.4003H76.6258C76.3256 9.41679 76.0587 9.31784 75.8585 9.11994Z" fill="white"/>
<path d="M87.6843 4.10644C87.4842 3.89205 87.3841 3.66116 87.3841 3.41379V1.25337C87.3841 0.973007 87.4842 0.742122 87.6843 0.527729C87.8845 0.313337 88.118 0.214386 88.3682 0.214386H103.08C103.346 0.214386 103.563 0.313337 103.763 0.527729C103.964 0.742122 104.064 0.973007 104.064 1.25337V3.41379C104.064 3.69415 103.964 3.92503 103.763 4.12293C103.563 4.32083 103.33 4.41978 103.08 4.41978H88.3682C88.118 4.41978 87.8845 4.32083 87.6843 4.10644Z" fill="white"/>
<path d="M87.6843 12.8966C87.4842 12.6822 87.3841 12.4513 87.3841 12.2039V10.027C87.3841 9.74663 87.4842 9.51574 87.6843 9.30135C87.8845 9.08696 88.118 8.98801 88.3682 8.98801H103.08C103.346 8.98801 103.563 9.08696 103.763 9.30135C103.964 9.51574 104.064 9.74663 104.064 10.027V12.2039C104.064 12.4843 103.964 12.7151 103.763 12.913C103.563 13.1109 103.33 13.2099 103.08 13.2099H88.3682C88.118 13.2099 87.8845 13.1109 87.6843 12.8966Z" fill="white"/>
<path d="M87.6843 21.6867C87.4842 21.4723 87.3841 21.2414 87.3841 20.961V18.8006C87.3841 18.5367 87.4842 18.3058 87.6843 18.1079C87.8845 17.8936 88.118 17.7946 88.3682 17.7946H103.08C103.346 17.7946 103.563 17.8936 103.763 18.0915C103.964 18.2894 104.064 18.5202 104.064 18.8006V20.961C104.064 21.2414 103.964 21.4723 103.763 21.6867C103.563 21.901 103.33 22 103.08 22H88.3682C88.118 22 87.8845 21.901 87.6843 21.6867Z" fill="white"/>
<path d="M65.9509 15.5517L61.2139 15.5187C60.0297 15.5187 59.3958 14.1664 60.1464 13.2594L64.9168 7.47076C65.1836 7.14093 65.5839 6.95952 66.0009 6.95952H70.9881C72.189 6.95952 72.8229 8.34483 72.0556 9.25187L67.0184 15.0735C66.7515 15.3703 66.3679 15.5517 65.9509 15.5517Z" fill="url(#paint0_linear)"/>
<path d="M106.832 2.30885C106.182 2.30885 105.665 1.7976 105.665 1.15442C105.665 0.511244 106.182 0 106.832 0C107.483 0 108 0.511244 108 1.15442C108 1.7976 107.483 2.30885 106.832 2.30885ZM106.832 0.164918C106.282 0.164918 105.832 0.610195 105.832 1.15442C105.832 1.69865 106.282 2.14393 106.832 2.14393C107.383 2.14393 107.833 1.69865 107.833 1.15442C107.833 0.610195 107.4 0.164918 106.832 0.164918Z" fill="white"/>
<path d="M107.199 1.66567L106.966 1.35232C106.933 1.35232 106.916 1.35232 106.899 1.35232H106.632V1.66567H106.482V0.626686H106.899C107.033 0.626686 107.149 0.65967 107.216 0.725637C107.283 0.791604 107.333 0.874062 107.333 0.989505C107.333 1.07196 107.316 1.13793 107.266 1.18741C107.233 1.23688 107.166 1.28636 107.099 1.30285L107.349 1.64917H107.199V1.66567ZM107.116 1.17091C107.166 1.13793 107.199 1.07196 107.199 0.989505C107.199 0.907046 107.166 0.857571 107.116 0.808095C107.066 0.775112 106.999 0.742128 106.899 0.742128H106.649V1.2039H106.899C106.983 1.22039 107.066 1.2039 107.116 1.17091Z" fill="white"/>
<defs>
<linearGradient id="paint0_linear" x1="59.8301" y1="11.2545" x2="72.3965" y2="11.2545" gradientUnits="userSpaceOnUse">
<stop stop-color="#A100FF"/>
<stop offset="1" stop-color="#662D91"/>
</linearGradient>
</defs>
</svg>
